PathFileType	4	(X/Y/Z)	./resultDataOpenSim/trcMotMarkerGrf/sub09/qtm-14-07.trc
DataRate	CameraRate	NumFrames	NumMarkers	Units	OrigDataRate	OrigDataStartFrame	OrigNumFrames
250.000000	250.000000	7	24	m	250.000000	122	485
Frame#	Time	L.Toe.Tip			R.Toe.Tip			L.Ankle.Lat			R.Ankle.Lat			L.Ankle.Med			R.Ankle.Med			L.Heel			R.Heel			L.Knee.Lat			R.Knee.Lat			L.Knee.Med			R.Knee.Med			L.Thigh.Upper			R.Thigh.Upper			L.ASIS			R.ASIS			V.Sacral			L.Acromium			R.Acromium			C7			L.Elbow			R.Elbow			L.Wrist.Lat			R.Wrist.Lat
		X1	Y1	Z1	X2	Y2	Z2	X3	Y3	Z3	X4	Y4	Z4	X5	Y5	Z5	X6	Y6	Z6	X7	Y7	Z7	X8	Y8	Z8	X9	Y9	Z9	X10	Y10	Z10	X11	Y11	Z11	X12	Y12	Z12	X13	Y13	Z13	X14	Y14	Z14	X15	Y15	Z15	X16	Y16	Z16	X17	Y17	Z17	X18	Y18	Z18	X19	Y19	Z19	X20	Y20	Z20	X21	Y21	Z21	X22	Y22	Z22	X23	Y23	Z23	X24	Y24	Z24

122	0.484	-0.14066761	0.080196217	-0.0010654944	-0.61247875	0.038343304	0.10093169	-0.29393452	0.085739435	-0.037583623	-0.76093664	0.059189504	0.12506711	-0.27356946	0.10993815	0.057274672	-0.74411615	0.094409158	0.03356224	-0.35150727	0.03535331	0.01415608	-0.82707272	0.038256138	0.071333944	-0.33990885	0.50213264	-0.078410998	-0.62290684	0.4950752	0.19117998	-0.34061245	0.49916618	0.047508763	-0.63180719	0.48844644	0.062960709	-0.51987702	0.88294477	-0.12344385	-0.56945452	0.89776861	0.24517689	-0.45302967	0.97194824	-0.05817791	-0.45936189	0.97741821	0.18181717	-0.62609534	1.0288231	0.048098361	-0.4688793	1.4215478	-0.1189288	-0.48529313	1.4382272	0.21047995	-0.54562824	1.479684	0.044540633	-0.63424951	1.0923698	-0.16527373	-0.58884593	1.0902402	0.31271415	-0.52329486	0.85497479	-0.20358968	-0.41486125	0.8763658	0.30003871
123	0.488	-0.12173301	0.083422883	-0.00012497154	-0.61246748	0.038317487	0.10093159	-0.27529172	0.085467735	-0.037006578	-0.76094995	0.059329195	0.12486925	-0.25543731	0.11045719	0.057783447	-0.74382741	0.094494214	0.033397044	-0.33150155	0.033909956	0.014889563	-0.82703018	0.038572948	0.071030428	-0.33279933	0.50032056	-0.078576648	-0.62055796	0.49425372	0.19126717	-0.33367958	0.49724221	0.047378739	-0.62879201	0.48787233	0.06308594	-0.51322288	0.88088214	-0.12328887	-0.56358014	0.89647243	0.24511753	-0.44623825	0.97003781	-0.058035636	-0.45291858	0.97572144	0.18202487	-0.61988401	1.0270523	0.04786451	-0.46269741	1.4198894	-0.1190192	-0.47910815	1.4365025	0.21044249	-0.53948244	1.4780532	0.044564848	-0.62868779	1.091151	-0.16547792	-0.58196376	1.0883277	0.31300621	-0.51878663	0.85344045	-0.204467	-0.40713992	0.87512197	0.30013541
124	0.492	-0.10315717	0.086819688	0.00072090417	-0.61246691	0.038289668	0.10088062	-0.25695223	0.085428551	-0.036516394	-0.76092049	0.059485572	0.1246663	-0.2375708	0.11119599	0.058201142	-0.74351156	0.094603603	0.03325106	-0.31178472	0.032759821	0.015525814	-0.8269724	0.038897532	0.070729086	-0.32570683	0.49847419	-0.078713013	-0.6176128	0.49350636	0.19154334	-0.32675968	0.49521911	0.047316288	-0.6257034	0.48725124	0.063195036	-0.50652888	0.87874619	-0.12313601	-0.55769085	0.89512864	0.24506073	-0.43945488	0.96805902	-0.057896657	-0.4464616	0.97397639	0.18222833	-0.61339613	1.0251707	0.047746894	-0.45649324	1.41816	-0.1191258	-0.47292061	1.434715	0.21041399	-0.53318931	1.4763187	0.044459017	-0.62306157	1.0898451	-0.16570694	-0.57507107	1.0863424	0.31327364	-0.5142359	0.85182807	-0.2053569	-0.39943853	0.87379706	0.30025059
125	0.496	-0.084961318	0.090387307	0.0014746832	-0.61246356	0.038255183	0.10084255	-0.23892884	0.085606678	-0.036115839	-0.76085445	0.059680058	0.12446544	-0.22003453	0.11211841	0.058537581	-0.74316024	0.094745981	0.033113551	-0.29237797	0.031866944	0.016053002	-0.8268951	0.039236382	0.070421077	-0.31860881	0.4965611	-0.078775459	-0.61369462	0.49296111	0.19210814	-0.31981492	0.49312677	0.047322842	-0.62255279	0.48659772	0.063315778	-0.49981002	0.87654484	-0.1229881	-0.55178724	0.89374015	0.24501056	-0.4326743	0.96602434	-0.057759648	-0.43999836	0.97218733	0.18243107	-0.60677308	1.0231994	0.047677918	-0.45026263	1.4163648	-0.11925336	-0.46672063	1.4328707	0.21038836	-0.52676809	1.4744679	0.044244411	-0.61738776	1.0884576	-0.16594113	-0.56818537	1.0843038	0.31352964	-0.5096095	0.85014132	-0.20626872	-0.39175525	0.87239988	0.30039102
126	0.5	-0.067176061	0.094100199	0.0021793743	-0.6124486	0.038211594	0.10085262	-0.22122634	0.085994752	-0.035797986	-0.76076605	0.059917629	0.12426921	-0.20287806	0.11318066	0.05881265	-0.74277674	0.094921111	0.032968222	-0.27331874	0.031199697	0.016442904	-0.82679562	0.039617541	0.070100478	-0.31149244	0.49457639	-0.078758031	-0.60898011	0.49259008	0.19285586	-0.31278886	0.49099242	0.047408314	-0.61937	0.48591505	0.06345924	-0.4930819	0.87427631	-0.12284342	-0.54585657	0.89230284	0.2449662	-0.42588586	0.96393662	-0.057619302	-0.43355054	0.97034445	0.18263391	-0.6000916	1.0211286	0.047585253	-0.44400553	1.4145043	-0.11939189	-0.46049093	1.4309714	0.21036049	-0.5203413	1.4725407	0.044047097	-0.61167185	1.0869952	-0.16617135	-0.56131034	1.0822161	0.31377531	-0.50489933	0.84838555	-0.20720562	-0.38410081	0.87092729	0.30055652
127	0.504	-0.049838904	0.097911789	0.0028745805	-0.61241964	0.038158889	0.10089954	-0.20385034	0.086581536	-0.035547667	-0.76067433	0.06018911	0.12407641	-0.18612596	0.11434328	0.059060406	-0.74237441	0.09511813	0.032787662	-0.25465497	0.03073087	0.016671494	-0.82667659	0.040069265	0.069750467	-0.30435083	0.4925558	-0.078693945	-0.60425659	0.49217476	0.19350861	-0.30560211	0.48883693	0.047603564	-0.61621241	0.48519725	0.063642197	-0.48635129	0.87193425	-0.12270109	-0.53987949	0.89081205	0.24492427	-0.4190852	0.96179144	-0.057473028	-0.42715658	0.96843522	0.1828335	-0.59332393	1.0189365	0.047404641	-0.43771928	1.4125792	-0.11952733	-0.45422675	1.4290115	0.21032988	-0.51398239	1.4705749	0.043942703	-0.60590831	1.0854636	-0.1664009	-0.55443532	1.0800659	0.31399856	-0.50013124	0.84656872	-0.20814583	-0.37648551	0.86937251	0.3007358
128	0.508	-0.032988626	0.10179008	0.0035696252	-0.61237757	0.038098413	0.1009571	-0.18681244	0.087343919	-0.035351854	-0.76059032	0.06047896	0.1238757	-0.16979387	0.11557013	0.059306923	-0.74196271	0.095330293	0.032545988	-0.23643347	0.030427778	0.016729908	-0.82654248	0.040594993	0.069337639	-0.2971696	0.49054372	-0.078608501	-0.6001622	0.49151146	0.19388083	-0.29820814	0.48668129	0.047938855	-0.61311408	0.48443615	0.063893382	-0.4796128	0.86952147	-0.12256029	-0.53384976	0.88926572	0.24488528	-0.41227757	0.95958799	-0.057322734	-0.4208386	0.96645493	0.1830243	-0.5864042	1.0166287	0.047092474	-0.43139969	1.4105903	-0.11965746	-0.44794538	1.4269906	0.21029736	-0.5076611	1.4685751	0.043893133	-0.60008697	1.0838619	-0.16663992	-0.54755534	1.0778466	0.31418953	-0.49532781	0.84469015	-0.20906822	-0.36891059	0.86773572	0.30092233
